<svg width="200" height="200" version="1.1" xmlns="http://www.w3.org/2000/svg" desc="Created with imagetracer.js version 1.2.4" ><path fill="rgb(0,0,0)" stroke="rgb(0,0,0)" stroke-width="0.5" opacity="1" d="M 25 25 L 26 25 L 67 25 L 67 25 L 67 26 L 67 67 L 67 67 L 67 67 L 26 67 L 25 67 L 25 67 L 25 26 L 25 25 Z M 31 31 L 31 32 L 31 61 L 31 61 L 32 61 L 61 61 L 61 61 L 61 61 L 61 32 L 61 31 L 61 31 L 32 31 L 31 31 Z " /><path fill="rgb(0,0,0)" stroke="rgb(0,0,0)" stroke-width="0.5" opacity="1" d="M 73 25 L 74 25 L 97 25 L 97 25 L 97 26 L 97 37 L 97 37 L 98 37 L 103 37 L 103 37 L 103 38 L 103 43 L 103 43 L 103 43 L 98 43 L 97 43 L 97 43 L 97 38 L 97 37 L 97 37 L 86 37 L 85 37 L 85 38 L 85 43 L 85 43 L 86 43 L 91 43 Q 91 43 91 44 L 91 73 L 91 73 L 92 73 L 97 73 L 97 73 L 97 73 L 97 56 L 97 55 L 98 55 L 103 55 L 103 55 L 103 55 L 103 50 L 103 49 L 104 49 L 109 49 L 109 49 L 109 49 L 109 38 L 109 37 L 110 37 L 115 37 L 115 37 L 115 37 L 115 32 L 115 31 L 115 31 L 104 31 L 103 31 L 103 31 L 103 26 L 103 25 L 104 25 L 122 25 L 122 25 L 122 26 L 122 37 L 122 37 L 123 37 L 128 37 L 128 37 L 128 38 L 128 43 L 128 43 L 128 43 L 123 43 L 122 43 L 122 44 L 122 55 L 122 55 L 123 55 L 128 55 L 128 55 L 128 56 L 128 67 L 128 67 L 128 67 L 123 67 L 122 67 L 122 67 L 122 56 L 122 55 L 122 55 L 116 55 L 115 55 L 115 56 L 115 67 L 115 67 L 115 67 L 110 67 L 109 67 L 109 68 L 109 73 L 109 73 L 110 73 L 122 73 L 122 73 L 122 74 L 122 79 L 122 79 L 122 79 L 116 79 L 115 79 L 115 80 L 115 85 L 115 85 L 115 85 L 110 85 L 109 85 L 109 85 L 109 74 L 109 73 L 109 73 L 98 73 L 97 73 L 97 74 L 97 79 L 97 79 L 98 79 L 103 79 L 103 79 L 103 80 L 103 91 L 103 91 L 103 91 L 74 91 Q 73 91 73 91 L 73 86 L 73 85 L 74 85 L 91 85 L 91 85 L 91 85 L 91 74 L 91 73 L 91 73 L 86 73 L 85 73 L 85 74 L 85 79 Q 85 79 85 79 L 62 79 L 61 79 L 61 79 L 61 74 Q 61 73 62 73 L 85 73 L 85 73 L 85 73 L 85 56 L 85 55 L 85 55 L 80 55 L 79 55 L 79 55 L 79 38 Q 79 37 79 37 L 74 37 L 73 37 L 73 37 L 73 26 L 73 25 Z M 79 31 L 79 32 L 79 37 L 79 37 L 80 37 L 85 37 L 85 37 L 85 37 L 85 32 L 85 31 L 85 31 L 80 31 L 79 31 Z M 115 37 L 115 38 L 115 43 L 115 43 L 116 43 L 122 43 L 122 43 L 122 43 L 122 38 L 122 37 L 122 37 L 116 37 L 115 37 Z M 103 61 L 103 62 L 103 67 L 103 67 L 104 67 L 109 67 L 109 67 L 109 67 L 109 62 L 109 61 L 109 61 L 104 61 L 103 61 Z " /><path fill="rgb(0,0,0)" stroke="rgb(0,0,0)" stroke-width="0.5" opacity="1" d="M 134 25 L 135 25 L 176 25 L 176 25 L 176 26 L 176 67 L 176 67 L 176 67 L 135 67 L 134 67 L 134 67 L 134 26 L 134 25 Z M 140 31 L 140 32 L 140 61 L 140 61 L 141 61 L 170 61 L 170 61 L 170 61 L 170 32 L 170 31 L 170 31 L 141 31 L 140 31 Z " /><path fill="rgb(0,0,0)" stroke="rgb(0,0,0)" stroke-width="0.5" opacity="1" d="M 37 37 L 38 37 L 55 37 L 55 37 L 55 38 L 55 55 L 55 55 L 55 55 L 38 55 L 37 55 L 37 55 L 37 38 L 37 37 Z " /><path fill="rgb(0,0,0)" stroke="rgb(0,0,0)" stroke-width="0.5" opacity="1" d="M 146 37 L 147 37 L 164 37 L 164 37 L 164 38 L 164 55 L 164 55 L 164 55 L 147 55 L 146 55 L 146 55 L 146 38 L 146 37 Z " /><path fill="rgb(0,0,0)" stroke="rgb(0,0,0)" stroke-width="0.5" opacity="1" d="M 73 61 L 74 61 L 79 61 L 79 61 L 79 62 L 79 67 L 79 67 L 79 67 L 74 67 L 73 67 L 73 67 L 73 62 L 73 61 Z " /><path fill="rgb(0,0,0)" stroke="rgb(0,0,0)" stroke-width="0.5" opacity="1" d="M 31 73 L 32 73 L 37 73 L 37 73 L 37 74 L 37 79 Q 37 79 38 79 L 55 79 L 55 79 L 55 80 L 55 85 L 55 85 L 56 85 L 67 85 L 67 85 L 67 86 L 67 91 L 67 91 L 67 91 L 56 91 L 55 91 L 55 91 L 55 86 L 55 85 L 55 85 L 50 85 L 49 85 L 49 86 L 49 97 L 49 97 L 50 97 L 55 97 L 55 97 L 55 98 L 55 103 L 55 103 L 56 103 L 61 103 L 61 103 L 61 103 L 61 98 L 61 97 L 62 97 L 67 97 L 67 97 L 67 98 L 67 103 L 67 103 L 67 103 L 62 103 L 61 103 L 61 104 L 61 109 L 61 109 L 62 109 L 67 109 L 68 110 L 73 110 L 73 110 L 73 111 L 73 116 L 73 116 L 74 116 L 79 116 L 79 116 L 79 116 L 79 111 L 79 110 L 80 110 L 85 110 L 85 110 L 85 111 L 85 116 L 85 116 L 86 116 L 91 116 L 91 116 L 91 116 L 91 111 L 91 110 L 92 110 L 97 110 L 97 110 L 97 111 L 97 116 L 97 116 L 98 116 L 103 116 L 103 116 L 103 116 L 103 111 L 103 110 L 104 110 L 109 110 L 109 110 L 109 111 L 109 116 L 109 116 L 109 116 L 104 116 L 103 116 L 103 117 L 103 122 L 103 122 L 104 122 L 109 122 L 109 122 L 109 123 L 109 128 L 109 128 L 109 128 L 98 128 L 97 128 L 97 128 L 97 123 L 97 122 L 97 122 L 92 122 L 91 122 L 91 123 L 91 128 L 91 128 L 91 128 L 86 128 L 85 128 L 85 128 L 85 117 L 85 116 L 85 116 L 80 116 L 79 116 L 79 117 L 79 140 Q 79 140 79 140 L 74 140 L 73 140 L 73 140 L 73 123 L 73 122 L 73 122 L 68 122 L 67 122 L 67 123 L 67 128 L 67 128 L 67 128 L 62 128 L 61 128 L 61 128 L 61 123 L 61 122 L 61 122 L 56 122 L 55 122 L 55 122 L 55 117 L 55 116 L 55 116 L 50 116 L 49 116 L 49 116 L 49 110 L 49 109 L 50 109 L 55 109 L 55 109 L 55 109 L 55 104 L 55 103 L 55 103 L 44 103 Q 43 103 43 104 L 43 109 L 43 109 L 43 109 L 32 109 L 31 109 L 31 110 L 31 128 Q 31 128 31 128 L 26 128 L 25 128 L 25 128 L 25 104 L 25 103 L 26 103 L 43 103 L 43 103 L 43 103 L 43 98 L 43 97 L 43 97 L 32 97 L 31 97 L 31 97 L 31 92 L 31 91 L 31 91 L 26 91 L 25 91 L 25 91 L 25 86 L 25 85 L 26 85 L 31 85 L 31 85 L 31 85 L 31 74 L 31 73 Z M 31 85 L 31 86 L 31 91 L 31 91 L 32 91 L 43 91 L 43 91 L 43 91 L 43 86 L 43 85 L 43 85 L 32 85 L 31 85 Z M 61 116 L 61 117 L 61 122 L 61 122 L 62 122 L 67 122 L 67 122 L 67 122 L 67 117 L 67 116 L 67 116 L 62 116 L 61 116 Z " /><path fill="rgb(0,0,0)" stroke="rgb(0,0,0)" stroke-width="0.5" opacity="1" d="M 128 73 L 129 73 L 134 73 L 134 73 L 134 74 L 134 79 L 134 79 L 134 79 L 129 79 L 128 79 L 128 79 L 128 74 L 128 73 Z " /><path fill="rgb(0,0,0)" stroke="rgb(0,0,0)" stroke-width="0.5" opacity="1" d="M 164 73 L 165 73 L 176 73 L 176 73 L 176 74 L 176 79 L 176 79 L 176 79 L 171 79 L 170 79 L 170 80 L 170 85 L 170 85 L 171 85 L 176 85 L 176 85 L 176 86 L 176 103 L 176 103 L 176 103 L 171 103 L 170 103 L 170 103 L 170 98 L 170 97 L 170 97 L 165 97 L 164 97 L 164 97 L 164 92 L 164 91 L 164 91 L 159 91 L 158 91 L 158 92 L 158 103 L 158 103 L 159 103 L 164 103 L 164 103 L 164 104 L 164 109 L 164 109 L 165 109 L 176 109 L 176 109 L 176 110 L 176 116 L 176 116 L 176 116 L 171 116 L 170 116 L 170 117 L 170 122 L 170 122 L 171 122 L 176 122 L 176 122 L 176 123 L 176 128 L 176 128 L 176 128 L 171 128 L 170 128 L 170 129 L 170 134 L 170 134 L 171 134 L 176 134 L 176 134 L 176 135 L 176 146 L 176 146 L 176 146 L 171 146 L 170 146 L 170 147 L 170 152 L 170 152 L 171 152 L 176 152 Q 176 152 176 153 L 176 176 L 176 176 L 176 176 L 171 176 Q 170 176 170 176 L 170 153 L 170 152 L 170 152 L 159 152 L 158 152 L 158 152 L 158 147 L 158 146 L 158 146 L 153 146 L 152 146 L 152 147 L 152 152 L 152 152 L 152 152 L 141 152 L 140 152 L 140 153 L 140 158 L 140 158 L 141 158 L 146 158 L 146 158 L 146 159 L 146 164 L 146 164 L 146 164 L 141 164 L 140 164 L 140 164 L 140 159 L 140 158 L 140 158 L 129 158 L 128 158 L 128 159 L 128 164 L 128 164 L 129 164 L 134 164 L 134 164 L 134 165 L 134 170 L 134 170 L 135 170 L 140 170 L 140 170 L 140 171 L 140 176 L 140 176 L 140 176 L 135 176 L 134 176 L 134 176 L 134 171 L 134 170 L 134 170 L 129 170 L 128 170 L 128 171 L 128 176 Q 128 176 128 176 L 110 176 L 109 176 L 109 176 L 109 171 L 109 170 L 109 170 L 104 170 L 103 170 L 103 170 L 103 165 L 103 164 L 103 164 L 98 164 L 97 164 L 97 165 L 97 170 L 97 170 L 97 170 L 92 170 L 91 170 L 91 170 L 91 165 L 91 164 L 91 164 L 86 164 L 85 164 L 85 164 L 85 159 L 85 158 L 86 158 L 91 158 L 91 158 L 91 158 L 91 153 L 91 152 L 91 152 L 86 152 L 85 152 L 85 152 L 85 135 L 85 134 L 86 134 L 122 134 Q 122 134 122 134 L 122 129 L 122 128 L 122 128 L 116 128 L 115 128 L 115 128 L 115 123 L 115 122 L 116 122 L 122 122 L 122 122 L 122 122 L 122 117 L 122 116 L 122 116 L 116 116 L 115 116 L 115 116 L 115 111 L 115 110 L 116 110 L 134 110 L 134 110 L 134 111 L 134 122 L 134 122 L 135 122 L 146 122 L 146 122 L 146 122 L 146 117 L 146 116 L 146 116 L 141 116 L 140 116 L 140 116 L 140 110 L 140 109 L 141 109 L 146 109 L 146 109 L 146 110 L 146 116 Q 146 116 147 116 L 164 116 L 164 116 L 164 116 L 164 110 L 164 109 L 164 109 L 159 109 L 158 109 L 158 109 L 158 104 L 158 103 L 158 103 L 153 103 L 152 103 L 152 103 L 152 98 L 152 97 L 152 97 L 147 97 L 146 97 L 146 98 L 146 103 L 146 103 L 146 103 L 135 103 L 134 103 L 134 103 L 134 98 L 134 97 L 135 97 L 140 97 L 140 97 L 140 97 L 140 92 L 140 91 L 140 91 L 135 91 L 134 91 L 134 91 L 134 86 L 134 85 L 135 85 L 140 85 L 140 85 L 140 85 L 140 80 L 140 79 L 141 79 L 152 79 L 152 79 L 152 80 L 152 85 L 152 85 L 153 85 L 158 85 L 158 85 L 158 85 L 158 80 L 158 79 L 159 79 L 164 79 L 164 79 L 164 79 L 164 74 L 164 73 Z M 140 85 L 140 86 L 140 91 L 140 91 L 141 91 L 146 91 L 146 91 L 146 91 L 146 86 L 146 85 L 146 85 L 141 85 L 140 85 Z M 164 122 L 164 123 L 164 128 L 164 128 L 165 128 L 170 128 L 170 128 L 170 128 L 170 123 L 170 122 L 170 122 L 165 122 L 164 122 Z M 128 128 L 128 129 L 128 146 L 128 146 L 129 146 L 146 146 L 146 146 L 146 146 L 146 129 L 146 128 L 146 128 L 129 128 L 128 128 Z M 152 134 L 152 135 L 152 140 L 152 140 L 153 140 L 158 140 L 158 140 L 158 141 L 158 146 L 158 146 L 159 146 L 170 146 L 170 146 L 170 146 L 170 135 L 170 134 L 170 134 L 153 134 L 152 134 Z M 91 140 L 91 141 L 91 146 L 91 146 L 92 146 L 97 146 L 97 146 L 97 147 L 97 158 L 97 158 L 98 158 L 109 158 L 109 158 L 109 158 L 109 147 L 109 146 L 109 146 L 104 146 L 103 146 L 103 146 L 103 141 L 103 140 L 103 140 L 92 140 L 91 140 Z M 115 146 L 115 147 L 115 158 L 115 158 L 115 158 L 110 158 L 109 158 L 109 159 L 109 170 L 109 170 L 110 170 L 128 170 L 128 170 L 128 170 L 128 165 L 128 164 L 128 164 L 123 164 L 122 164 L 122 164 L 122 159 L 122 158 L 123 158 L 128 158 L 128 158 L 128 158 L 128 153 L 128 152 L 128 152 L 123 152 L 122 152 L 122 152 L 122 147 L 122 146 L 122 146 L 116 146 L 115 146 Z " /><path fill="rgb(0,0,0)" stroke="rgb(0,0,0)" stroke-width="0.5" opacity="1" d="M 70 94 L 70 95 L 70 105 Q 70 106 69 105 L 69 95 L 70 94 Z " /><path fill="rgb(0,0,0)" stroke="rgb(0,0,0)" stroke-width="0.5" opacity="1" d="M 92 94 L 93 94 L 99 94 L 99 94 L 99 95 Q 99 96 99 96 L 99 96 L 97 96 L 96 96 L 96 97 L 96 105 Q 96 106 95 105 L 95 97 Q 95 96 95 96 L 93 96 L 92 96 L 92 96 Q 92 94 92 94 Z " /><path fill="rgb(0,0,0)" stroke="rgb(0,0,0)" stroke-width="0.5" opacity="1" d="M 112 94 L 112 95 L 112 99 L 113 99 L 118 94 L 118 95 L 115 98 L 115 101 L 119 105 L 119 105 Q 117 105 117 105 Q 117 105 117 104 L 114 100 Q 112 100 112 100 L 112 101 L 112 105 L 112 105 L 111 105 L 111 95 L 112 94 Z " /><path fill="rgb(0,0,0)" stroke="rgb(0,0,0)" stroke-width="0.5" opacity="1" d="M 124 94 L 126 94 L 127 96 L 127 96 L 126 95 L 124 95 L 122 97 L 122 98 L 123 99 L 123 99 L 121 98 L 121 97 L 124 94 Z " /><path fill="rgb(0,0,0)" stroke="rgb(0,0,0)" stroke-width="0.5" opacity="1" d="M 103 96 L 106 96 L 106 97 L 106 97 L 103 97 Q 102 97 103 96 Z " /><path fill="rgb(0,0,0)" stroke="rgb(0,0,0)" stroke-width="0.5" opacity="1" d="M 101 97 Q 101 97 101 99 L 100 100 L 101 100 L 108 100 L 109 99 L 109 100 L 109 105 L 109 105 L 108 104 L 101 104 L 100 105 L 99 105 L 99 100 L 100 99 Q 100 97 101 97 Z " /><path fill="rgb(0,0,0)" stroke="rgb(0,0,0)" stroke-width="0.5" opacity="1" d="M 79 99 L 79 100 L 78 101 L 78 102 L 79 103 L 78 104 L 79 104 L 82 104 L 82 105 L 82 105 L 79 105 L 77 104 L 77 101 L 79 99 Z " /><path fill="rgb(0,0,0)" stroke="rgb(0,0,0)" stroke-width="0.5" opacity="1" d="M 125 99 L 126 99 L 127 101 L 127 104 L 126 105 L 123 105 L 121 104 L 122 103 L 123 104 L 126 104 L 126 104 L 126 104 L 126 102 L 124 100 L 125 99 Z " /><path fill="rgb(0,0,0)" stroke="rgb(0,0,0)" stroke-width="0.5" opacity="1" d="M 86 100 Q 86 100 86 102 L 88 103 L 89 102 L 89 103 L 89 104 L 88 105 L 88 106 L 87 107 Q 87 108 87 108 Q 86 108 86 107 L 87 106 L 87 104 L 85 102 Q 85 100 86 100 Z " /><path fill="rgb(0,0,0)" stroke="rgb(0,0,0)" stroke-width="0.5" opacity="1" d="M 37 116 L 38 116 L 43 116 L 43 116 L 43 117 L 43 122 L 43 122 L 43 122 L 38 122 L 37 122 L 37 122 L 37 117 L 37 116 Z " /><path fill="rgb(0,0,0)" stroke="rgb(0,0,0)" stroke-width="0.5" opacity="1" d="M 25 134 L 26 134 L 67 134 L 67 134 L 67 135 L 67 176 L 67 176 L 67 176 L 26 176 L 25 176 L 25 176 L 25 135 L 25 134 Z M 31 140 L 31 141 L 31 170 L 31 170 L 32 170 L 61 170 L 61 170 L 61 170 L 61 141 L 61 140 L 61 140 L 32 140 L 31 140 Z " /><path fill="rgb(0,0,0)" stroke="rgb(0,0,0)" stroke-width="0.5" opacity="1" d="M 134 134 L 135 134 L 140 134 L 140 134 L 140 135 L 140 140 L 140 140 L 140 140 L 135 140 L 134 140 L 134 140 L 134 135 L 134 134 Z " /><path fill="rgb(0,0,0)" stroke="rgb(0,0,0)" stroke-width="0.5" opacity="1" d="M 37 146 L 38 146 L 55 146 L 55 146 L 55 147 L 55 164 L 55 164 L 55 164 L 38 164 L 37 164 L 37 164 L 37 147 L 37 146 Z " /><path fill="rgb(0,0,0)" stroke="rgb(0,0,0)" stroke-width="0.5" opacity="1" d="M 73 164 L 74 164 L 79 164 L 79 164 L 79 165 L 79 170 L 79 170 L 80 170 L 85 170 L 85 170 L 85 171 L 85 176 L 85 176 L 85 176 L 80 176 L 79 176 L 79 176 L 79 171 L 79 170 L 79 170 L 74 170 L 73 170 L 73 170 L 73 165 L 73 164 Z " /><path fill="rgb(0,0,0)" stroke="rgb(0,0,0)" stroke-width="0.5" opacity="1" d="M 152 164 L 153 164 L 158 164 L 158 164 L 158 165 L 158 176 L 158 176 L 158 176 L 153 176 L 152 176 L 152 176 L 152 165 L 152 164 Z " /><path fill="rgb(217,217,217)" stroke="rgb(217,217,217)" stroke-width="0.5" opacity="1" d="M 130 92 L 131 92 Q 132 92 132 92 L 132 93 L 132 105 L 132 105 L 130 104 L 130 93 L 130 92 Z " /><path fill="rgb(217,217,217)" stroke="rgb(217,217,217)" stroke-width="0.5" opacity="1" d="M 113 94 L 113 95 L 113 99 Q 113 100 112 99 L 112 95 L 113 94 Z " /><path fill="rgb(217,217,217)" stroke="rgb(217,217,217)" stroke-width="0.5" opacity="1" d="M 119 94 L 119 95 L 116 98 L 115 98 L 119 94 Z " /><path fill="rgb(217,217,217)" stroke="rgb(217,217,217)" stroke-width="0.5" opacity="1" d="M 123 94 L 124 95 L 126 95 L 127 94 L 128 96 L 128 96 L 127 95 L 126 96 L 124 96 L 123 96 Q 123 96 123 98 L 124 99 L 124 100 Q 124 101 123 100 Q 123 98 123 98 L 122 99 L 121 99 L 122 98 L 122 97 L 121 96 L 123 94 Z " /><path fill="rgb(217,217,217)" stroke="rgb(217,217,217)" stroke-width="0.5" opacity="1" d="M 102 96 L 103 97 L 106 97 L 107 96 L 107 97 Q 107 98 107 98 Q 107 98 109 98 L 109 99 L 108 100 L 101 100 L 99 99 L 100 98 L 101 99 L 107 99 L 107 99 L 107 98 L 102 98 L 101 98 Q 101 98 101 97 L 102 96 Z " /><path fill="rgb(217,217,217)" stroke="rgb(217,217,217)" stroke-width="0.5" opacity="1" d="M 75 99 L 75 100 L 75 105 L 75 105 L 75 105 Q 73 105 73 105 L 73 105 L 73 102 L 74 101 Q 74 99 75 99 Z " /><path fill="rgb(217,217,217)" stroke="rgb(217,217,217)" stroke-width="0.5" opacity="1" d="M 78 99 L 79 100 L 80 99 L 81 99 L 82 100 Q 83 100 83 100 Q 83 100 83 102 L 83 102 L 81 100 L 80 100 L 79 101 L 80 102 L 80 103 L 78 105 L 77 105 L 79 103 L 79 102 L 77 100 L 78 99 Z " /><path fill="rgb(217,217,217)" stroke="rgb(217,217,217)" stroke-width="0.5" opacity="1" d="M 113 100 L 113 101 L 113 105 Q 113 106 112 105 L 112 101 L 113 100 Z " /><path fill="rgb(217,217,217)" stroke="rgb(217,217,217)" stroke-width="0.5" opacity="1" d="M 116 100 L 118 103 L 117 104 L 115 103 L 116 102 L 115 101 L 116 100 Z " /><path fill="rgb(217,217,217)" stroke="rgb(217,217,217)" stroke-width="0.5" opacity="1" d="M 87 103 L 87 104 L 87 106 L 88 107 L 88 107 L 86 106 L 86 104 L 87 103 Z " /><path fill="rgb(217,217,217)" stroke="rgb(217,217,217)" stroke-width="0.5" opacity="1" d="M 123 103 L 123 104 L 122 105 L 121 105 L 123 103 Z " /><path fill="rgb(217,217,217)" stroke="rgb(217,217,217)" stroke-width="0.5" opacity="1" d="M 126 103 L 127 105 L 127 105 L 125 104 L 126 103 Z " /><path fill="rgb(255,255,255)" stroke="rgb(255,255,255)" stroke-width="0.5" opacity="1" d="M 0 0 L 1 0 L 200 0 L 200 0 L 200 1 L 200 200 L 200 200 L 200 200 L 1 200 L 0 200 L 0 200 L 0 1 L 0 0 Z M 25 25 L 25 26 L 25 67 L 25 67 L 26 67 L 67 67 L 67 67 L 67 67 L 67 26 L 67 25 L 67 25 L 26 25 L 25 25 Z M 73 25 L 73 26 L 73 37 L 73 37 L 74 37 L 79 37 L 79 37 L 79 37 L 79 32 L 79 31 L 80 31 L 85 31 L 85 31 L 85 32 L 85 37 L 85 37 L 86 37 L 97 37 L 97 37 L 97 37 L 97 26 L 97 25 L 97 25 L 74 25 L 73 25 Z M 103 25 L 103 26 L 103 31 L 103 31 L 104 31 L 115 31 Q 115 31 115 32 L 115 37 L 115 37 L 116 37 L 122 37 L 122 37 L 122 37 L 122 26 L 122 25 L 122 25 L 104 25 L 103 25 Z M 134 25 L 134 26 L 134 67 L 134 67 L 135 67 L 176 67 L 176 67 L 176 67 L 176 26 L 176 25 L 176 25 L 135 25 L 134 25 Z M 79 37 L 79 38 L 79 55 L 79 55 L 80 55 L 85 55 L 85 55 L 85 56 L 85 73 L 85 73 L 86 73 L 91 73 L 91 73 L 91 73 L 91 44 Q 91 43 91 43 L 86 43 L 85 43 L 85 43 L 85 38 L 85 37 L 85 37 L 80 37 L 79 37 Z M 97 37 L 97 38 L 97 43 L 97 43 L 98 43 L 103 43 L 103 43 L 103 43 L 103 38 L 103 37 L 103 37 L 98 37 L 97 37 Z M 109 37 L 109 38 L 109 49 L 109 49 L 109 49 L 104 49 L 103 49 L 103 50 L 103 55 L 103 55 L 103 55 L 98 55 L 97 55 L 97 56 L 97 73 L 97 73 L 98 73 L 109 73 L 109 73 L 109 73 L 109 68 L 109 67 L 109 67 L 104 67 L 103 67 L 103 67 L 103 62 L 103 61 L 104 61 L 109 61 L 109 61 L 109 62 L 109 67 L 109 67 L 110 67 L 115 67 L 115 67 L 115 67 L 115 56 L 115 55 L 116 55 L 122 55 L 122 55 L 122 55 L 122 44 L 122 43 L 122 43 L 116 43 L 115 43 L 115 43 L 115 38 L 115 37 L 115 37 L 110 37 L 109 37 Z M 122 37 L 122 38 L 122 43 L 122 43 L 123 43 L 128 43 L 128 43 L 128 43 L 128 38 L 128 37 L 128 37 L 123 37 L 122 37 Z M 122 55 L 122 56 L 122 67 L 122 67 L 123 67 L 128 67 L 128 67 L 128 67 L 128 56 L 128 55 L 128 55 L 123 55 L 122 55 Z M 73 61 L 73 62 L 73 67 L 73 67 L 74 67 L 79 67 L 79 67 L 79 67 L 79 62 L 79 61 L 79 61 L 74 61 L 73 61 Z M 31 73 L 31 74 L 31 85 L 31 85 L 32 85 L 43 85 L 43 85 L 43 86 L 43 91 L 43 91 L 43 91 L 32 91 L 31 91 L 31 92 L 31 97 L 31 97 L 32 97 L 43 97 L 43 97 L 43 98 L 43 103 L 43 103 L 44 103 L 55 103 L 55 103 L 55 103 L 55 98 L 55 97 L 55 97 L 50 97 L 49 97 L 49 97 L 49 86 L 49 85 L 50 85 L 55 85 L 55 85 L 55 85 L 55 80 L 55 79 L 55 79 L 38 79 Q 37 79 37 79 L 37 74 L 37 73 L 37 73 L 32 73 L 31 73 Z M 61 73 L 61 74 L 61 79 Q 61 79 62 79 L 85 79 L 85 79 L 85 79 L 85 74 Q 85 73 85 73 L 62 73 L 61 73 Z M 91 73 L 91 74 L 91 85 L 91 85 L 91 85 L 74 85 L 73 85 L 73 86 L 73 91 Q 73 91 74 91 L 103 91 L 103 91 L 103 91 L 103 80 L 103 79 L 103 79 L 98 79 L 97 79 L 97 79 L 97 74 L 97 73 L 97 73 L 92 73 L 91 73 Z M 109 73 L 109 74 L 109 85 L 109 85 L 110 85 L 115 85 L 115 85 L 115 85 L 115 80 L 115 79 L 116 79 L 122 79 L 122 79 L 122 79 L 122 74 L 122 73 L 122 73 L 110 73 L 109 73 Z M 128 73 L 128 74 L 128 79 L 128 79 L 129 79 L 134 79 L 134 79 L 134 79 L 134 74 L 134 73 L 134 73 L 129 73 L 128 73 Z M 164 73 L 164 74 L 164 79 L 164 79 L 164 79 L 159 79 L 158 79 L 158 80 L 158 85 L 158 85 L 158 85 L 153 85 L 152 85 L 152 85 L 152 80 L 152 79 L 152 79 L 141 79 L 140 79 L 140 80 L 140 85 L 140 85 L 141 85 L 146 85 L 146 85 L 146 86 L 146 91 L 146 91 L 146 91 L 141 91 L 140 91 L 140 92 L 140 97 L 140 97 L 140 97 L 135 97 L 134 97 L 134 98 L 134 103 L 134 103 L 135 103 L 146 103 L 146 103 L 146 103 L 146 98 L 146 97 L 147 97 L 152 97 L 152 97 L 152 98 L 152 103 L 152 103 L 153 103 L 158 103 L 158 103 L 158 103 L 158 92 L 158 91 L 159 91 L 164 91 L 164 91 L 164 92 L 164 97 L 164 97 L 165 97 L 170 97 L 170 97 L 170 98 L 170 103 L 170 103 L 171 103 L 176 103 L 176 103 L 176 103 L 176 86 L 176 85 L 176 85 L 171 85 L 170 85 L 170 85 L 170 80 L 170 79 L 171 79 L 176 79 L 176 79 L 176 79 L 176 74 L 176 73 L 176 73 L 165 73 L 164 73 Z M 25 85 L 25 86 L 25 91 L 25 91 L 26 91 L 31 91 L 31 91 L 31 91 L 31 86 L 31 85 L 31 85 L 26 85 L 25 85 Z M 55 85 L 55 86 L 55 91 L 55 91 L 56 91 L 67 91 L 67 91 L 67 91 L 67 86 L 67 85 L 67 85 L 56 85 L 55 85 Z M 134 85 L 134 86 L 134 91 L 134 91 L 135 91 L 140 91 L 140 91 L 140 91 L 140 86 L 140 85 L 140 85 L 135 85 L 134 85 Z M 130 92 L 130 93 L 130 105 L 130 105 Q 130 105 132 105 L 132 105 L 132 105 L 132 93 L 132 92 Q 132 92 131 92 L 130 92 Z M 70 93 L 69 94 L 69 105 L 70 105 L 70 105 L 70 102 L 72 100 Q 73 100 73 100 L 73 101 L 73 105 L 73 105 Q 73 105 75 105 L 75 105 L 75 105 L 75 100 L 75 99 L 75 99 L 71 99 L 70 99 L 70 99 L 70 94 L 70 93 Z M 92 94 Q 92 94 92 96 L 92 96 L 93 96 L 95 96 Q 95 96 95 97 L 95 105 Q 96 106 96 105 L 96 97 L 96 96 L 97 96 L 99 96 L 99 96 Q 99 96 99 95 L 99 94 L 99 94 L 93 94 L 92 94 Z M 111 94 L 111 95 L 111 105 L 111 105 Q 111 105 113 105 L 113 105 L 113 105 L 113 101 L 114 100 L 115 102 L 115 103 L 118 105 Q 119 105 119 105 L 118 104 L 118 103 L 115 100 L 115 99 L 119 95 Q 119 94 118 94 L 114 98 L 113 98 L 113 95 L 113 94 Q 113 94 112 94 L 111 94 Z M 123 94 L 121 96 L 121 99 L 121 99 Q 121 99 123 99 L 124 100 L 125 100 L 126 102 L 126 103 L 125 104 L 124 104 L 123 103 Q 121 103 121 103 Q 121 103 121 105 L 121 105 L 122 105 L 127 105 L 127 105 Q 127 105 127 104 L 128 103 L 128 102 L 127 101 Q 127 99 127 99 L 127 99 L 125 99 L 123 98 Q 123 96 123 96 L 124 96 L 128 96 L 128 96 L 127 94 L 123 94 Z M 102 96 L 99 99 L 99 105 L 99 105 Q 99 105 101 105 L 102 104 L 107 104 L 108 105 Q 109 105 109 105 L 109 105 L 109 99 L 107 96 L 102 96 Z M 61 97 L 61 98 L 61 103 L 61 103 L 62 103 L 67 103 L 67 103 L 67 103 L 67 98 L 67 97 L 67 97 L 62 97 L 61 97 Z M 77 99 Q 77 99 77 101 L 76 102 L 76 103 L 77 104 Q 77 105 77 105 L 78 105 L 82 105 L 82 105 Q 82 105 82 104 L 82 103 L 81 104 L 80 104 L 79 104 L 81 102 L 83 102 L 83 102 Q 83 102 83 101 L 82 99 L 78 99 L 77 99 Z M 85 99 L 84 100 L 85 101 L 85 102 L 86 103 L 86 107 L 85 108 Q 85 108 87 108 L 88 107 L 88 106 L 89 105 L 89 103 L 90 102 L 90 101 L 91 100 L 91 99 Q 89 99 89 99 Q 89 99 89 101 L 88 102 Q 88 103 88 103 Q 87 103 87 102 L 86 101 Q 86 99 86 99 Q 86 99 85 99 Z M 25 103 L 25 104 L 25 128 L 25 128 L 26 128 L 31 128 Q 31 128 31 128 L 31 110 L 31 109 L 32 109 L 43 109 L 43 109 L 43 109 L 43 104 L 43 103 L 43 103 L 26 103 L 25 103 Z M 55 103 L 55 104 L 55 109 L 55 109 L 55 109 L 50 109 L 49 109 L 49 110 L 49 116 L 49 116 L 50 116 L 55 116 L 55 116 L 55 117 L 55 122 L 55 122 L 56 122 L 61 122 L 61 122 L 61 122 L 61 117 L 61 116 L 62 116 L 67 116 L 67 116 L 67 117 L 67 122 L 67 122 L 68 122 L 73 122 L 73 122 L 73 123 L 73 140 L 73 140 L 74 140 L 79 140 L 79 140 L 79 140 L 79 117 Q 79 116 79 116 L 74 116 L 73 116 L 73 116 L 73 111 L 73 110 L 73 110 L 68 110 L 67 109 L 62 109 L 61 109 L 61 109 L 61 104 L 61 103 L 61 103 L 56 103 L 55 103 Z M 158 103 L 158 104 L 158 109 L 158 109 L 159 109 L 164 109 L 164 109 L 164 109 L 164 104 L 164 103 L 164 103 L 159 103 L 158 103 Z M 140 109 L 140 110 L 140 116 L 140 116 L 141 116 L 146 116 L 146 116 L 146 116 L 146 110 L 146 109 L 146 109 L 141 109 L 140 109 Z M 164 109 L 164 110 L 164 116 L 164 116 L 164 116 L 147 116 L 146 116 L 146 117 L 146 122 L 146 122 L 146 122 L 135 122 L 134 122 L 134 122 L 134 111 L 134 110 L 134 110 L 116 110 L 115 110 L 115 111 L 115 116 L 115 116 L 116 116 L 122 116 L 122 116 L 122 117 L 122 122 L 122 122 L 122 122 L 116 122 L 115 122 L 115 123 L 115 128 L 115 128 L 116 128 L 122 128 L 122 128 L 122 129 L 122 134 Q 122 134 122 134 L 86 134 L 85 134 L 85 135 L 85 152 L 85 152 L 86 152 L 91 152 L 91 152 L 91 153 L 91 158 L 91 158 L 91 158 L 86 158 L 85 158 L 85 159 L 85 164 L 85 164 L 86 164 L 91 164 L 91 164 L 91 165 L 91 170 L 91 170 L 92 170 L 97 170 L 97 170 L 97 170 L 97 165 L 97 164 L 98 164 L 103 164 L 103 164 L 103 165 L 103 170 L 103 170 L 104 170 L 109 170 L 109 170 L 109 170 L 109 159 L 109 158 L 109 158 L 98 158 L 97 158 L 97 158 L 97 147 L 97 146 L 97 146 L 92 146 L 91 146 L 91 146 L 91 141 L 91 140 L 92 140 L 103 140 L 103 140 L 103 141 L 103 146 L 103 146 L 104 146 L 109 146 L 109 146 L 109 147 L 109 158 L 109 158 L 110 158 L 115 158 L 115 158 L 115 158 L 115 147 L 115 146 L 116 146 L 122 146 L 122 146 L 122 147 L 122 152 L 122 152 L 123 152 L 128 152 L 128 152 L 128 153 L 128 158 L 128 158 L 129 158 L 140 158 L 140 158 L 140 158 L 140 153 L 140 152 L 141 152 L 152 152 L 152 152 L 152 152 L 152 147 L 152 146 L 153 146 L 158 146 L 158 146 L 158 146 L 158 141 L 158 140 L 158 140 L 153 140 L 152 140 L 152 140 L 152 135 L 152 134 L 153 134 L 170 134 L 170 134 L 170 134 L 170 129 L 170 128 L 170 128 L 165 128 L 164 128 L 164 128 L 164 123 L 164 122 L 165 122 L 170 122 L 170 122 L 170 122 L 170 117 L 170 116 L 171 116 L 176 116 L 176 116 L 176 116 L 176 110 L 176 109 L 176 109 L 165 109 L 164 109 Z M 79 110 L 79 111 L 79 116 L 79 116 L 80 116 L 85 116 L 85 116 L 85 116 L 85 111 L 85 110 L 85 110 L 80 110 L 79 110 Z M 91 110 L 91 111 L 91 116 L 91 116 L 91 116 L 86 116 L 85 116 L 85 117 L 85 128 L 85 128 L 86 128 L 91 128 L 91 128 L 91 128 L 91 123 L 91 122 L 92 122 L 97 122 L 97 122 L 97 123 L 97 128 L 97 128 L 98 128 L 109 128 L 109 128 L 109 128 L 109 123 L 109 122 L 109 122 L 104 122 L 103 122 L 103 122 L 103 117 L 103 116 L 103 116 L 98 116 L 97 116 L 97 116 L 97 111 L 97 110 L 97 110 L 92 110 L 91 110 Z M 103 110 L 103 111 L 103 116 L 103 116 L 104 116 L 109 116 L 109 116 L 109 116 L 109 111 L 109 110 L 109 110 L 104 110 L 103 110 Z M 37 116 L 37 117 L 37 122 L 37 122 L 38 122 L 43 122 L 43 122 L 43 122 L 43 117 L 43 116 L 43 116 L 38 116 L 37 116 Z M 61 122 L 61 123 L 61 128 L 61 128 L 62 128 L 67 128 L 67 128 L 67 128 L 67 123 L 67 122 L 67 122 L 62 122 L 61 122 Z M 170 122 L 170 123 L 170 128 L 170 128 L 171 128 L 176 128 L 176 128 L 176 128 L 176 123 L 176 122 L 176 122 L 171 122 L 170 122 Z M 25 134 L 25 135 L 25 176 L 25 176 L 26 176 L 67 176 L 67 176 L 67 176 L 67 135 L 67 134 L 67 134 L 26 134 L 25 134 Z M 170 134 L 170 135 L 170 146 L 170 146 L 171 146 L 176 146 L 176 146 L 176 146 L 176 135 L 176 134 L 176 134 L 171 134 L 170 134 Z M 158 146 L 158 147 L 158 152 L 158 152 L 159 152 L 170 152 L 170 152 L 170 152 L 170 147 L 170 146 L 170 146 L 159 146 L 158 146 Z M 170 152 L 170 153 L 170 176 Q 170 176 171 176 L 176 176 L 176 176 L 176 176 L 176 153 Q 176 152 176 152 L 171 152 L 170 152 Z M 122 158 L 122 159 L 122 164 L 122 164 L 123 164 L 128 164 L 128 164 L 128 164 L 128 159 L 128 158 L 128 158 L 123 158 L 122 158 Z M 140 158 L 140 159 L 140 164 L 140 164 L 141 164 L 146 164 L 146 164 L 146 164 L 146 159 L 146 158 L 146 158 L 141 158 L 140 158 Z M 73 164 L 73 165 L 73 170 L 73 170 L 74 170 L 79 170 L 79 170 L 79 170 L 79 165 L 79 164 L 79 164 L 74 164 L 73 164 Z M 128 164 L 128 165 L 128 170 L 128 170 L 129 170 L 134 170 L 134 170 L 134 170 L 134 165 L 134 164 L 134 164 L 129 164 L 128 164 Z M 152 164 L 152 165 L 152 176 L 152 176 L 153 176 L 158 176 L 158 176 L 158 176 L 158 165 L 158 164 L 158 164 L 153 164 L 152 164 Z M 79 170 L 79 171 L 79 176 L 79 176 L 80 176 L 85 176 L 85 176 L 85 176 L 85 171 L 85 170 L 85 170 L 80 170 L 79 170 Z M 109 170 L 109 171 L 109 176 Q 109 176 110 176 L 128 176 L 128 176 L 128 176 L 128 171 Q 128 170 128 170 L 110 170 L 109 170 Z M 134 170 L 134 171 L 134 176 L 134 176 L 135 176 L 140 176 L 140 176 L 140 176 L 140 171 L 140 170 L 140 170 L 135 170 L 134 170 Z " /><path fill="rgb(255,255,255)" stroke="rgb(255,255,255)" stroke-width="0.5" opacity="1" d="M 31 31 L 32 31 L 61 31 L 61 31 L 61 32 L 61 61 L 61 61 L 61 61 L 32 61 L 31 61 L 31 61 L 31 32 L 31 31 Z M 37 37 L 37 38 L 37 55 L 37 55 L 38 55 L 55 55 L 55 55 L 55 55 L 55 38 L 55 37 L 55 37 L 38 37 L 37 37 Z " /><path fill="rgb(255,255,255)" stroke="rgb(255,255,255)" stroke-width="0.5" opacity="1" d="M 140 31 L 141 31 L 170 31 L 170 31 L 170 32 L 170 61 L 170 61 L 170 61 L 141 61 L 140 61 L 140 61 L 140 32 L 140 31 Z M 146 37 L 146 38 L 146 55 L 146 55 L 147 55 L 164 55 L 164 55 L 164 55 L 164 38 L 164 37 L 164 37 L 147 37 L 146 37 Z " /><path fill="rgb(255,255,255)" stroke="rgb(255,255,255)" stroke-width="0.5" opacity="1" d="M 102 98 L 107 98 L 107 99 L 107 99 L 102 99 Q 101 99 102 98 Z " /><path fill="rgb(255,255,255)" stroke="rgb(255,255,255)" stroke-width="0.5" opacity="1" d="M 80 100 Q 81 100 81 101 Q 81 101 80 101 L 79 102 L 78 102 L 80 100 Z " /><path fill="rgb(255,255,255)" stroke="rgb(255,255,255)" stroke-width="0.5" opacity="1" d="M 128 128 L 129 128 L 146 128 L 146 128 L 146 129 L 146 146 L 146 146 L 146 146 L 129 146 L 128 146 L 128 146 L 128 129 L 128 128 Z M 134 134 L 134 135 L 134 140 L 134 140 L 135 140 L 140 140 L 140 140 L 140 140 L 140 135 L 140 134 L 140 134 L 135 134 L 134 134 Z " /><path fill="rgb(255,255,255)" stroke="rgb(255,255,255)" stroke-width="0.5" opacity="1" d="M 31 140 L 32 140 L 61 140 L 61 140 L 61 141 L 61 170 L 61 170 L 61 170 L 32 170 L 31 170 L 31 170 L 31 141 L 31 140 Z M 37 146 L 37 147 L 37 164 L 37 164 L 38 164 L 55 164 L 55 164 L 55 164 L 55 147 L 55 146 L 55 146 L 38 146 L 37 146 Z " /></svg>